<svg xmlns="http://www.w3.org/2000/svg" preserveAspectRatio="none" viewBox="0 0 1440 320" transform="rotate(180)">  
    <defs>
        <linearGradient id="a" x1="0%" y1="0%" x2="100%" y2="0%">
            <stop offset="0%" stop-color="#FF6F61" />
            <stop offset="100%" stop-color="#f33eb1" />
        </linearGradient>
        <filter id="b" width="120" height="120">
            <feOffset in="SourceAlpha" dy="20" />
            <feGaussianBlur stdDeviation="8" />
            <feBlend in="SourceGraphic" in2="blurOut" />
        </filter>
    </defs>
    <path fill="url(#a)" filter="url(#b)" d="M0,160L6.2,160C12.3,160,25,160,37,176C49.2,192,62,224,74,234.7C86.2,245,98,235,111,202.7C123.1,171,135,117,148,96C160,75,172,85,185,122.7C196.9,160,209,224,222,250.7C233.8,277,246,267,258,245.3C270.8,224,283,192,295,154.7C307.7,117,320,75,332,80C344.6,85,357,139,369,160C381.5,181,394,171,406,170.7C418.5,171,431,181,443,202.7C455.4,224,468,256,480,250.7C492.3,245,505,203,517,181.3C529.2,160,542,160,554,154.7C566.2,149,578,139,591,128C603.1,117,615,107,628,138.7C640,171,652,245,665,261.3C676.9,277,689,235,702,186.7C713.8,139,726,85,738,80C750.8,75,763,117,775,154.7C787.7,192,800,224,812,224C824.6,224,837,192,849,192C861.5,192,874,224,886,229.3C898.5,235,911,213,923,218.7C935.4,224,948,256,960,250.7C972.3,245,985,203,997,160C1009.2,117,1022,75,1034,96C1046.2,117,1058,203,1071,250.7C1083.1,299,1095,309,1108,277.3C1120,245,1132,171,1145,149.3C1156.9,128,1169,160,1182,160C1193.8,160,1206,128,1218,128C1230.8,128,1243,160,1255,186.7C1267.7,213,1280,235,1292,229.3C1304.6,224,1317,192,1329,170.7C1341.5,149,1354,139,1366,122.7C1378.5,107,1391,85,1403,96C1415.4,107,1428,149,1434,170.7L1440,192L1440,320L1433.8,320C1427.7,320,1415,320,1403,320C1390.8,320,1378,320,1366,320C1353.8,320,1342,320,1329,320C1316.9,320,1305,320,1292,320C1280,320,1268,320,1255,320C1243.1,320,1231,320,1218,320C1206.2,320,1194,320,1182,320C1169.2,320,1157,320,1145,320C1132.3,320,1120,320,1108,320C1095.4,320,1083,320,1071,320C1058.5,320,1046,320,1034,320C1021.5,320,1009,320,997,320C984.6,320,972,320,960,320C947.7,320,935,320,923,320C910.8,320,898,320,886,320C873.8,320,862,320,849,320C836.9,320,825,320,812,320C800,320,788,320,775,320C763.1,320,751,320,738,320C726.2,320,714,320,702,320C689.2,320,677,320,665,320C652.3,320,640,320,628,320C615.4,320,603,320,591,320C578.5,320,566,320,554,320C541.5,320,529,320,517,320C504.6,320,492,320,480,320C467.7,320,455,320,443,320C430.8,320,418,320,406,320C393.8,320,382,320,369,320C356.9,320,345,320,332,320C320,320,308,320,295,320C283.1,320,271,320,258,320C246.2,320,234,320,222,320C209.2,320,197,320,185,320C172.3,320,160,320,148,320C135.4,320,123,320,111,320C98.5,320,86,320,74,320C61.5,320,49,320,37,320C24.6,320,12,320,6,320L0,320Z"
         />
</svg>